<mxfile host="app.diagrams.net" modified="2024-04-03T07:04:21.227Z" agent="Mozilla/5.0 (Windows NT 10.0; Win64; x64) AppleWebKit/537.36 (KHTML, like Gecko) Chrome/123.0.0.0 Safari/537.36" etag="UJe5D06-1S_YS5LDE-NE" version="24.0.2" type="github">
  <diagram name="Page-1" id="sZPuaRA4dSH9x9ZjaD7J">
    <mxGraphModel dx="1147" dy="545" grid="1" gridSize="10" guides="1" tooltips="1" connect="1" arrows="1" fold="1" page="1" pageScale="1" pageWidth="827" pageHeight="1169" math="0" shadow="0">
      <root>
        <mxCell id="0" />
        <mxCell id="1" parent="0" />
        <mxCell id="np1AO1xEaLbohagVk7P--69" value="" style="rounded=1;whiteSpace=wrap;html=1;dashed=1;rotation=90;fillColor=#94E8D7;gradientColor=#97d077;strokeColor=#82b366;" vertex="1" parent="1">
          <mxGeometry x="566.48" y="338.6" width="257.25" height="152.56" as="geometry" />
        </mxCell>
        <mxCell id="np1AO1xEaLbohagVk7P--67" value="" style="rounded=1;whiteSpace=wrap;html=1;dashed=1;fillColor=#FFFC9E;gradientColor=#FC88BA;strokeColor=#996185;" vertex="1" parent="1">
          <mxGeometry x="95" y="280" width="500" height="260" as="geometry" />
        </mxCell>
        <mxCell id="np1AO1xEaLbohagVk7P--1" value="" style="image;aspect=fixed;html=1;points=[];align=center;fontSize=12;image=img/lib/azure2/other/API_Proxy.svg;sketch=1;hachureGap=4;jiggle=2;curveFitting=1;shadow=1;textShadow=1;" vertex="1" parent="1">
          <mxGeometry x="376" y="110" width="78" height="78" as="geometry" />
        </mxCell>
        <mxCell id="np1AO1xEaLbohagVk7P--60" style="edgeStyle=orthogonalEdgeStyle;rounded=0;orthogonalLoop=1;jettySize=auto;html=1;" edge="1" parent="1" source="np1AO1xEaLbohagVk7P--3">
          <mxGeometry relative="1" as="geometry">
            <mxPoint x="210" y="310" as="targetPoint" />
            <Array as="points">
              <mxPoint x="210" y="198" />
              <mxPoint x="210" y="310" />
            </Array>
          </mxGeometry>
        </mxCell>
        <mxCell id="np1AO1xEaLbohagVk7P--3" value="&lt;b&gt;&lt;font style=&quot;font-size: 18px;&quot;&gt;Master Branch&lt;/font&gt;&lt;/b&gt;" style="text;html=1;align=center;verticalAlign=middle;resizable=0;points=[];autosize=1;strokeColor=#d6b656;fillColor=#fff2cc;" vertex="1" parent="1">
          <mxGeometry x="339" y="178" width="150" height="40" as="geometry" />
        </mxCell>
        <mxCell id="QofJ-HMqeY-KDgoxN6Gj-8" value="" style="group;shadow=1;textShadow=1;rounded=1;" parent="1" vertex="1" connectable="0">
          <mxGeometry x="160" y="70" width="653" height="64.37" as="geometry" />
        </mxCell>
        <mxCell id="np1AO1xEaLbohagVk7P--4" value="&lt;b&gt;&lt;font style=&quot;font-size: 30px;&quot;&gt;Global Branching Architecture&lt;/font&gt;&lt;/b&gt;" style="text;html=1;align=center;verticalAlign=middle;resizable=0;points=[];autosize=1;strokeColor=none;fillColor=none;" vertex="1" parent="QofJ-HMqeY-KDgoxN6Gj-8">
          <mxGeometry x="29.03" y="5.365" width="460" height="50" as="geometry" />
        </mxCell>
        <mxCell id="np1AO1xEaLbohagVk7P--47" value="&lt;a class=&quot;CID9d80e414-2153-44ac-9d05-2637f54f270f&quot; data-sessionid=&quot;7587ce71-c991-4f4b-9269-f35e0905eb10&quot; data-shapeids=&quot;6&quot; data-slideid=&quot;&quot; style=&quot;font-family: &amp;quot;Times New Roman&amp;quot;; font-size: medium; font-style: normal; font-variant-ligatures: normal; font-variant-caps: normal; letter-spacing: normal; orphans: 2; text-align: start; text-indent: 0px; text-transform: none; widows: 2; word-spacing: 0px; -webkit-text-stroke-width: 0px; text-decoration-thickness: initial; text-decoration-style: initial; text-decoration-color: initial;&quot;&gt;&amp;nbsp;&lt;/a&gt;&lt;img src=&quot;data:image/png;base64, iVBORw0KGgoAAAANSUhEUgAAAGUAAABICAYAAADvTjsnAAAAAXNSR0IArs4c6QAAAARnQU1BAACxjwv8YQUAAAAJcEhZcwAADsMAAA7DAcdvqGQAABk1SURBVHhe7V0JfBXVuf9m5u43d80eQkIISVjCGsomUlSsCipYW1EeItrFWkVUqq1bpbV2EfW1WG2r1S5W37NQ7SuKuGAFKwgCrggGWQMkZN9u7jpz3/+b3BNvLklIIGER/r/fx733zJkz53z/bzszA9AZnHyQYp99BTF+Z9eJxj4Z8d9Pa/QFKTymEDkm4ns8mAQWLSbiO+O0Jqg3SYknwZAgCkQcY8STEUkQFSJI6i45Yh2drUeMc0qQ3RukCDJY8UaICWKOE/4dTwxDkMIkhCEhSBASiH1n4WNdkSPmLshmEXMRx8S54npCOhvzpMCxkiKUwWRYIFaIHWKLfU8kha/HIpQUTwoT0gLxQfwxSSSHIcbg6/KYPDZfP9ErGeI67H3iWvzJIjyScVIRdLSkCMWwEljxTIAjTpgUC7Rj9Awe4w0WTcpx5Bf3b0jOHaCZ7U6byWCWJIWCETUUDPqbU5ordjXs37vbvmdLqX/zq7uampoacH4TpBnCZLEyWYmCDEEEGwKL8EpBTjwpghDhjcIj+VOMG0/6CcfRkCIIEUpJgrggbggTYscBs+Pc2QOjk7/x1WDqgELVmdwvaLIbSOX1Y+3R2Pr1kfCHZCBFC0dNLXUVckNNqbP03ZWhF5b8u6amphY9GiHsQaxAcV02AiaevZJFEGOEIbR5iqIoEv5QJVWNBFU1iE5BsMEeyN7IwuMyOUxYbHInHrzInoIXLBTjhHhiwt9tyRMuyJEvuXlGfdbgiRGz1aivMgJDjYpI0RkwFYOBJFkhOdgSTfLVf2L5YPUTtf9a+u/woTImh5XH8+XrsiHw9fiTyTF7M/onhYqnZDsHjcppySjIk5LcHpvNmoQB5XAo1NLs89W7mqr2BMq2bde2bfyMNr+2F+7I3sjCBPH4wmtOKHpKiggdrBj2jmSIl7+DJZvz+oen+cZcdEnI4fFqKgxbO8r1sfcYjKQEAyFX1a5/Gv90xyOHtm1hYvj6TAITwl5p9WTmuC2zFk5oLhw/LuJKzw9YHNao7om4tvBIXqbukTKZ1LAqN9XuM9Xv3+zZtPLFvS889gE61ENEqORQd0KJ6Qkp3JcJ4VAhCEmBuD0pmZ7o9x+9oil/7DTVYJQowpGmFyDLJCsGMtZWfJz10kP3l6167hA0xgZhN9pcTtflC0pCEy+f5Uvy9lORpkhFFDqiIbQSLoEkQ6C52V2161/Sm3/7U+Wrz2zDQfYaDm8ilAn98GdHuhKs82f892MCx9/ugvtyJcUWyuGKSfF4vV63suiv1zUMLJmKlUik8Xp6CbD0KMKeanenh3NHjk31le9s3PNZNClrULL1lt/NbSiZcVnA6vCgDwjhENlNffAcIZrBZPK7ModH88dMTMvOK4tsev0gRmFWeSARFThU87qFiIqS2/k466Utj/UGukuK8BK2Uk7o7CEes8PlNi7809yG/JIpqtYDpfQUUGDY7vYEc0cXONVQZcvV918bGDB8rKapyjEZAc+Xx7YkJUcy86e6R5zV2Lx2eSmOsF5EVcl5K15EcdFZ2c/kdORV3UZ3TuY+fCEOW0xIGiQdDW7XjUsvbhg/c47GAfuIifzYgZATNagRNWwwG1rJ6EUjUIxkUYP+lK1v/bjywete5nIMEF4ivCJe4bxgngTnIFFuc04SctQld3c8RXgJWwaTwmHLlTplZkHj9O9/V1VMpuNBSAySJityn1wPY0YUkzHkzixxJ9n3+z7+DyuWc6cLrDgtnnSvJTs/3TJgWFa4f3G/aPbgdLn/kAx7v4JUiyvZifLbag74TCFNYxJZmECWeHSLmO54Cg/MLsqEpEMy7LLsMfz81YUNOcXjKcwG8SWCwURJ9RWl2gNX/NIebtDCU+cNVfNGFlBqdi7ZPWkGa1Jyg9Fq5XpCRoBwREMh8jdVh1qaqsyNVTulAzu2ubas2Lhn09r9GI33WFw8iP0QexUT0yU53SFFeAl7SAYkPeOyBePrLr3l5qDBZDummH7yIuqtKfs4YLQ4Q3ZPhmpzWqK88Y1CeL3xuTNWaqNM1PdYSqglLPt9VY7asnXS2mX/8K96+hNsgkTJzZUdE9NlODtS+BKhS5TBHotMTvWqe2e2pOcVUiQWeb90kCS/Izk9bHO6NVk26OvUyegkbMYKBq4ANUlRVIvN4XdnDNUGT7jINGF6mlMKHVR3bfUxpegtpFN0hxROcuwp+q0UY8GoftqF3706IskgqksvPLXBBCR6RbfABLWeG1EMppAnY3i4YMLUrKLRNfXrV+xFBwzaRkyHgycmokQwKdyHydMrENeYabl+1MLHMbmfuoCOothIh5I82fuLpy1x/eLVH+a40niPx5FHVHOH4UikMJgYJkWXSM7wQd3KRGfwBRD+Iopiauo3+Hrfj5ffW5Sby8Rw8cT6P0yb3fEUIdxXNmb0z5E4sZ1BzwCv0bDRqk/Lu6Z84bP3WvsXOdDK0afHpByGStmZ8iXOJH0L5Bo1GpWakrPnexc+Nh8t7C0cgdoRcyRSWP9CNCsPG+05kWcQB84zikE+lJx3R/o9f5uMFvaWdjrtjoI5o3PFwPdg1ajUccVwBj0ASmfVbHOFc0feMvrKG3lTzjy0eUt3PYU3PGEwEzFL0V66L396IxoOUZ3Ve175uKsuxc92Iay7nqKTwpIWrCs74yy9gaiuxVpX2vdLSko4t/SIlHhviTQd2r+v9cleH0CnH2P3xfAqBg3jAix9NP0eAxtM1Wguqp/36AX41RbCuiKFO7C07VEgsn3Hu5/1yXMTDDk51UyLhjkpx4pL9dYlMA7v1C7PtdFDE7y0ZFwy5dp7cfxjAZfJBrOpzu68ZEEcF52RIgjhyoDXJB7qmOu2vFXlaq4qI5k3pL0IEH1JtoUeGu+lYU5WWu9oje8XLh7houenptJ3Cx10ZZ6NbDIv7eQAP1n1y5bhG3/xYiZ+6hPrihRBiHhjhasEu7a/NKzu/fQjfs7dIViXqJvbJF63/J2l7XjsdwxxX79Au/6Qjjp1dhyVSaHdQLeBlDcPBmj4CwdpzIqDtMPHkRjobEz+LdpFn3jEtycc6vJYR+DH2AaloNyRlh9r6ZAUbhN3hpkQfluFb9u7jRabI+nan04KDxg9scM7xJgEn5gNRQx3m6jAYaBks0xSbHIKqE7H7/wkAxW7jJSbpOhv7CUuutWO8SeajfjIthko32GkARhXt3LRHZ8m9BuI8fh6eejjMmL68DJehNcs0eX9rWTEOasP+KkReaWRS0jkLSf68Xn5SUZKt/A5reMxPCaZMq0GsmLC/XDtPFzXzpPHuLyWTKtMg51GKoT0Q6jlS/K5CiQLx/S5Ymw+P3FthwGeEjBYbSGjPQu/cIJY/xfg36wmJiT+jRWP0ZXiNi/43ZX+wnHnqvz0jxmOB65txuIXDU6iu0a6yY6FMfY2hWnRe3X0jz0tdCvyxZ3DnZSKhTIiqkZ/391Ct22qo0N+lX45xk0/xLkzVpXTyvIglKrQfSOc9C2EHR6PC4x/7PbRzZvqqbwlQnZo47djPTRnUBKZWAHA+1VBumlDLW1ritDm6RmU61BIxrxwKSpvjtDl/64iC8Z6qMRDX0njooeoAp7zq48b6fc7mikQ0eg3GJPD3IaqEE3JspDLpNDXXq2gdzD2XcNddMNgB3l1ayI6hHPHr6ygqpBG92Ft1+MY91dBxsoyrBlr39kMS2hVR8cwmGmk1Hjvh3OKfoFfamJXXhlrjF8IYC/hkOUyO1xOw21/nt88eNI0ffhEQhhQ2ORUIz3wFS+9Aas8++VyumZNFW2tC+tP6Pi40yDRqv1+uhqKmY5FLt/j0xV6fUGSXh0Jm9I/8cf9I110czHywe5mmrqynB7+qIG+MTAJCsW0oOQbcO78Igf9YXsjnfVSOS1YV0MHQRZMhkJg4YnPmmifT6XagEZLP2mgez6o1731r5NT4FUG+sG7NfRfb1bSbij2EeSy2blYNuZphXumwYPOz7HSMhjBog019FF9mO7GXO4e5aaPakM0760qmot1/BRjVmP8u2Fwd4xw08p9fpr6SgUtwfUuyrHRr0C+zl+XDsMeLPWP/WjHn/ASNh9+a4NJcVqMRrtp4ZOzA4PGTD7S84UBMQ/YA4vcUh2iv5Y204zVlbRsXwvikEw/gVKve7uG3qoKUCn6/GF7M9WHVBrjNZECwoSn82cWKqR5hUn0boWfbnu3jtaU+ekeeMj/gaCvo5JKguKG4jzGToy17lCAfvtpI138ZhW9DYvmJ0pPwPJ94ShtawjTXR800F8wn8sG2OE9Bvrlxw308NZGeg6GMe/tamqBUdw2zEVmg9w2jwdwzndA9CMY14753TjUQbsaw/RNEPIMyHoW5z4O4rMxV/ZmJmv+2mp9rndizisQHabB0zi0dhnGoNO6iMQ3KPVOiaSIXMKkcCebZc69kwODxp0XZe9A/OsK79aE9HC1EC7+3qWZ9OuJXhrpQUHAROLUYo+JXjw/jd65KINePz+dnj47mdxwdbZeA3tTDBxqihCXkX4oH7nn5QvTae2sfvT6xZk0Lt3Cb7VQAWL2sl3N1Ix9xxJ450ZcbzHCH+czfSlQwmCcmwOFlYOhAJQuwTC4HNY0jbbVIydyfoJbHQpGaR/m3R85LiUWdnnOW7kPj4V+HEpdkDUH/VSNUKVPmgXHMpBX0pFLOEe+hpD59qwsWjMzk6ZkIvThnMxulPjo1pakBSkYXf/OJRWHLr0Edg8anhKc9PXLwkaj4UiE8OS2wsWnv14JD2jS53szLO+dGZl0BSybk+nfQMI5mCjnkbvfb6CnS30UBAMwQr10FeD5WzCAgjE5NOxsjOhKY3kV4e+PsM4akPEKKqpZbxyi5bDaNMSI+8Z4aMOMDJrKuQIkcIhyYLWfN4f1QXmBPCYbLRy0DZyrQujfahytc+GcoPeJzQun6Wjhza1oZOAnn8dNjUGN9mCOe+FNZchpKxAhfg8vY09uZ/6JkGRKNyn8ogUP3q6rIIU9RX/JTPr67V8L2j1p+gva3YCE2W1HqPgewsEkxNUr36okE1azAHF/fLKJRkKW7fLR7etr6H8+b6KnSpuoFgsRCxbgRXKc5/XvASE83tzViOEITdcijt/0Tg3t82vEL9WvLg/QHLRxsr1tY60e9mbDCBgcVnidH8KDeXUqlF8dVFGBwqpBmL7LhzgRsrLgYWwANSF4lH52O9XrYZCJGp9uhmLQwJPj89HWAM8J4PcBFCvz38JckafEXG/4Tw1thU4OW2Q8QEpTWN0T+9VGCp8hSOGcYvaO+GpGMG9UiaabsE5g18Dkvony88lJXjoLcdSMhVdBcRoU0YgF1UP5Pix4CELYmEwr5SHOliSb9VidODon6u2wtjXwhIug4HsQlsZhzLHwspn5STQuE1PE9e5HmHxgtJvGQlG85hoohR+P+3GMG7iEjuD7euQ34Yr/3NuCNo2uR77iyqrIbaTbix2UihDz7E6fHg6FUtqAcz+HtbPlj03FBvcrHjob15wEjzw320q74BUrkUcmpFloyQQvjc+yUkmGhWaggvuaXjzExukIGNsSaok2B8P78Evv2ZqZW8Fmxb85exqlkVPy+dky8dvz3YQNljsnH7vmgXYqa9Gwv5Dh7ho9hupoLRTz6LZG+hFK3tUXpFEVrDIZJudETmkAWWzF7WwJ01sAy39S8dJdqHgWIskGYZle7B9WodS8FJbI2uPy+8ahTqoMqNTPbqRSkPlHJHgbcsOkVLNuGE18v4sBolbBs36EEvx+hLoV09J0D8i0KbRsZzM9irDIk2DNYDpfAG0cZu/YXI8cKNNNuN63UTHywyUjjGrsinK6FWMihUV/MNwlXY+kHwbxPNc3kYPWVlYSlquPcxhkA8nR0K50JbIPK9IhujEhHLJ4X8KbmAzXz15a2JBX8lWKdP9lOx4sDxY3GVaUgUqsAd7xJqqnHU0IzjjIFyl2G2h8ihlhTQYZKkrmEG2HFbagSxESZSESPFt2Nchk7XCyPwthrwgexhZ8CB3XVwfpAFbJpfZg7EMmwnp5o1gBAl6DEnjPk4tC4NPLsmgL9hpTXz+kPxBqA5Q5DBqcBMs2w5C21gWxBwkRbEPHUIQ23gS+jxzJ4axNSziPN4QT4eGFzACaShtCtL42rO9v+Ng4VIQcDbA8qoZhvo1KswJ6iOe4HUwWcod8/6ybN/ByFDC69cSTwoGYN4r9IOmpj29eUuVIy9PL4J6Ar85mxp/66PhDxAMxs3gzjIUVva84Nz7+irZ48DmiPyP+erH+30Tp+/dz0+hubN5+vrWh/ZgMDnFtiI0nusTGOOwchjhNzEnMhZF4jBF/PBE4JuOgVwvdUj1/0FK06CcKdTHanRqxu7N7TAiDR+HFwGr0z8QriONCRBuDP7ktHqIt8RwGf7JwG67HO/cbsaPmPPPf2AxWwmNWlvNLiR0gfjyeI48jwN+5vSNwszjOEt8t8Vji8UQgwStqZP8l1sbn8KuNyXiVcWObRJTO7jiepMCsHSDmmjw73YmdNSf972Hj90HdESqfEwnFQBkm6amnZ4+pjrXoiA8sLBzTWoV/nUqA3ptQCFyM3XbuCwdo6muV9CIKgi4t9UTCYCKbFt6WFar/M6bYTtvxnsJkcLzicisSPVkX0wV4AZVIqmXY49RxxXWyegiqAEWLRDIo9OCGa0e37U8E4j2F18SE8HY/bA35a/S3yU81MA9HiuUnGBLKYKcWeWbn3EF/iTW1Q7zWhZfofxMp2FCzV6/rzqBXIRlRAqvBtVcmK4tgNx0miY48hUlpsdeWfdzrj3xPc0jYkzjU4IYhWvi6312cWxdrPgzxrsDEMCn6v8jg3/Hhe5Zgs/+Mt/QCoEP+q+eecMvqYVLz7HXzC3fGjnSIRFI4hLGnNNlf+8Mmub7qQ1Jan1mcwdFBQpWlRCnkiIQev8zccsX6ucP476h0iURSOIRxovcdqK2tdX2+7nlDJBQ6JRP+iQTv4uEZZDSTVQ1uKpDVq+rnD7zpqdnF/K9mHBEd1Sh8y4XvFDsyiLyRpesfqU7Ju5DC7ECnMXTDhN3G30KJhwy1IQfrd1XCQU2Jap+55ejjqap/+afXFlfEenULHZHCbUwMP1dxuC769pDwrFv/6E/y5EW/tH/H8QiApq2khaF0ya+Y4QIxYvgDZJmiYU0Oh6rkqLrfRNEtOUZpxXkVh954ZNGkAJTZCYudoyNSGNzOpZfZBmLSFi6dUj5i+u+DVpubwqcZMSCEbxumR5oWm/y+TXUGc3qK1eCyKrI5FKVgVSDaoMhyvces7J2oNpc9M29U1dEQEY/OSGGwv7LHcKa3p9z+5/MCQyY97DMnZZ5OHiOh0HFpgeWFddu/tXHh9Ob70La49ZCAuPlxTETEoytSGHyciTG6EM7SFz0x+uDgyb/y2T1j+XXL1sfEvTaXkw/YV3jVwHuDtPrZG+eN2h1r7XOwwo8E1roWBAU161dUeFX/S87sIr+mGAZoJqsryvsYfgb7pQJClmKkZC24YbgcvGbd1cWfxw4cF3SHFAHWvNq84/2WpJVP/id/1LjXggZzjVlRrCrJWZpi5AcaWEzrv7zAwkmw9S+tniBv0kuhIwWDOPBcDQbEbYnsWuR/J0rh76yeW7QrdvS4oQcz1iH6s6aloUNJ1s75ucMycHy235NRUhmRBjrMihd0WMIBf6Sxcn+jyWwuqEkvuDTKyumsnOwjoCyNkGKWVFlS9HcNOru+TgY2eWpIM2mRj1Jk+vXAyN7n11x7zgnZB/SUlHiIcxM/GVy58eNlT87ZFwypvPrh3wbs3gEdvhTeF2APJQpktFQtDoWiUtjhvCQoG0cFFVPru0dipswR0nQSBWskVXvbpdDLMzPMLz52fjZv8k6Qe7dXZG+CPUl//RWlW4r3x8u/V1k48Wb935U8HoDVu7XQqif+NX3m4mWfkmnBb1wVGQWpBTnZeRWqccgOn+SyGSkyxGmoMKiRreU19QfGhbWKZUe5r+ht9BUpPC7nK/2vU2QXDuvXeOuzTzW60ob3+T4Hu2ozqdXDlMDFW+YUbYy1MhLXKpR/wklIBFt0X4AXyjc3+f2k5v2lW8st77/yIDZftfwv0PUZELb4TWG3Fn5wcyshPA8hXKjEi2g/6dCT6utooVdt2ubVBzNHTKoKejLOiSjdeDe5p+A8gorPGQn+unr+oMUnQxg6WvSVpwiw5nmHGfATNfp+dtXzmeXbF1sjoWaO+70GBWWsLGtuNbR0Y3rpnacyIYzj4SkiTGgtIMj6xrMfmYonbiVXysiw2Z7cuvE8Sh1ymQ1yzZpW54mEF1fbNi1OmTXrOFUTfYfjQQqjjZgmEONbu3xXUd6wNZrTYw8bjIVRk7X1uXN3QxrfRTCYSdLUqDsafmeAHL1h9zUDn5OWLevlmHhikFiR9DX4eiwcNg3JRMaMh16ZVOHO+ZZftkwKWmz9+EVvnRz2IHH7hj2CieA7BtgHWtRgvaKqm5DUn7vFtuXZn1xxxZfqDunxJkUgnhx50fnnG1dduGhQwJ01vloyTzYYDAO9ZjkjxWIciFwh+UJq7aFg5PPGUHR/mlF9R9Gi627JDn1y0znF/B8HHGXsO3lxokiJhyBIzCX+u1C4CH/xv8/gDI4XiP4fd+DXhwaxl+4AAAAASUVORK5CYII=&quot; alt=&quot;&quot; data-image-width-mu=&quot;2.92452830188679&quot; data-image-height-mu=&quot;2.0125786163522&quot; data-from-ppt-online=&quot;true&quot; class=&quot;CID9d80e414-2153-44ac-9d05-2637f54f270f&quot; style=&quot;font-family: &amp;quot;Times New Roman&amp;quot;; font-size: medium; font-style: normal; font-variant-ligatures: normal; font-variant-caps: normal; letter-spacing: normal; orphans: 2; text-align: start; text-indent: 0px; text-transform: none; widows: 2; word-spacing: 0px; -webkit-text-stroke-width: 0px; text-decoration-thickness: initial; text-decoration-style: initial; text-decoration-color: initial;&quot;&gt;" style="text;whiteSpace=wrap;html=1;fontColor=default;strokeColor=none;fontStyle=0;rotation=0;" vertex="1" parent="QofJ-HMqeY-KDgoxN6Gj-8">
          <mxGeometry x="500" y="320" width="50" height="20" relative="1" as="geometry">
            <mxPoint x="576" y="33" as="offset" />
          </mxGeometry>
        </mxCell>
        <mxCell id="np1AO1xEaLbohagVk7P--49" value="" style="shape=image;verticalLabelPosition=bottom;labelBackgroundColor=default;verticalAlign=top;aspect=fixed;imageAspect=0;image=https://images.ctfassets.net/xz1dnu24egyd/4QGmokIyrhHxpfmYIKHq17/ef43a9f88f2a9c1da8f5382383756d46/gitlab-logo-150.jpg;" vertex="1" parent="QofJ-HMqeY-KDgoxN6Gj-8">
          <mxGeometry x="153" y="-50" width="160.11" height="61.53" as="geometry" />
        </mxCell>
        <mxCell id="np1AO1xEaLbohagVk7P--51" value="" style="image;aspect=fixed;html=1;points=[];align=center;fontSize=12;image=img/lib/azure2/analytics/Azure_Synapse_Analytics.svg;shadow=1;textShadow=1;" vertex="1" parent="1">
          <mxGeometry x="185" y="320" width="51.31" height="59" as="geometry" />
        </mxCell>
        <mxCell id="np1AO1xEaLbohagVk7P--52" value="&lt;b&gt;&lt;font style=&quot;font-size: 16px;&quot;&gt;Develop Branch&lt;/font&gt;&lt;/b&gt;" style="text;html=1;align=center;verticalAlign=middle;resizable=0;points=[];autosize=1;strokeColor=#b85450;fillColor=#f8cecc;" vertex="1" parent="1">
          <mxGeometry x="135.65" y="385" width="150" height="30" as="geometry" />
        </mxCell>
        <mxCell id="np1AO1xEaLbohagVk7P--53" value="" style="image;aspect=fixed;html=1;points=[];align=center;fontSize=12;image=img/lib/azure2/networking/Private_Link_Hub.svg;shadow=1;textShadow=1;" vertex="1" parent="1">
          <mxGeometry x="475.65" y="311" width="46.69" height="54" as="geometry" />
        </mxCell>
        <mxCell id="np1AO1xEaLbohagVk7P--54" value="" style="image;aspect=fixed;html=1;points=[];align=center;fontSize=12;image=img/lib/azure2/networking/Private_Link_Hub.svg;shadow=1;textShadow=1;" vertex="1" parent="1">
          <mxGeometry x="475.65" y="410.5" width="46.69" height="54" as="geometry" />
        </mxCell>
        <mxCell id="np1AO1xEaLbohagVk7P--80" value="" style="edgeStyle=orthogonalEdgeStyle;rounded=0;orthogonalLoop=1;jettySize=auto;html=1;dashed=1;" edge="1" parent="1" source="np1AO1xEaLbohagVk7P--55" target="np1AO1xEaLbohagVk7P--73">
          <mxGeometry relative="1" as="geometry" />
        </mxCell>
        <mxCell id="np1AO1xEaLbohagVk7P--55" value="&lt;span dir=&quot;ltr&quot; class=&quot;ui-provider a b c d e f g h i j k l m n o p q r s t u v w x y z ab ac ae af ag ah ai aj ak&quot;&gt;&lt;b&gt;project2-dev&lt;/b&gt;&lt;/span&gt;" style="text;html=1;align=center;verticalAlign=middle;resizable=0;points=[];autosize=1;strokeColor=#b85450;fillColor=#f8cecc;" vertex="1" parent="1">
          <mxGeometry x="454" y="475.5" width="90" height="30" as="geometry" />
        </mxCell>
        <mxCell id="np1AO1xEaLbohagVk7P--81" value="" style="edgeStyle=orthogonalEdgeStyle;rounded=0;orthogonalLoop=1;jettySize=auto;html=1;dashed=1;" edge="1" parent="1" source="np1AO1xEaLbohagVk7P--56" target="np1AO1xEaLbohagVk7P--70">
          <mxGeometry relative="1" as="geometry" />
        </mxCell>
        <mxCell id="np1AO1xEaLbohagVk7P--56" value="&lt;span dir=&quot;ltr&quot; class=&quot;ui-provider a b c d e f g h i j k l m n o p q r s t u v w x y z ab ac ae af ag ah ai aj ak&quot;&gt;&lt;b&gt;project1-dev&lt;/b&gt;&lt;/span&gt;" style="text;html=1;align=center;verticalAlign=middle;resizable=0;points=[];autosize=1;strokeColor=#b85450;fillColor=#f8cecc;" vertex="1" parent="1">
          <mxGeometry x="454" y="369.5" width="90" height="30" as="geometry" />
        </mxCell>
        <mxCell id="np1AO1xEaLbohagVk7P--58" value="&lt;b&gt;&lt;font style=&quot;font-size: 18px;&quot;&gt;Project Branches ( Dev )&lt;/font&gt;&lt;/b&gt;" style="text;html=1;align=center;verticalAlign=middle;resizable=0;points=[];autosize=1;strokeColor=none;fillColor=none;rotation=-90;" vertex="1" parent="1">
          <mxGeometry x="-40" y="390" width="230" height="40" as="geometry" />
        </mxCell>
        <mxCell id="np1AO1xEaLbohagVk7P--61" value="&lt;font style=&quot;font-size: 10px;&quot;&gt;&lt;font style=&quot;&quot;&gt;&lt;b style=&quot;&quot;&gt;Develop branch&amp;nbsp;&lt;/b&gt;&lt;/font&gt;&lt;/font&gt;&lt;div&gt;&lt;font style=&quot;font-size: 10px;&quot;&gt;&lt;b style=&quot;background-color: initial;&quot;&gt;created&amp;nbsp;&lt;/b&gt;&lt;b style=&quot;background-color: initial;&quot;&gt;from&amp;nbsp;&lt;/b&gt;&lt;/font&gt;&lt;/div&gt;&lt;div&gt;&lt;font style=&quot;font-size: 10px;&quot;&gt;&lt;b style=&quot;background-color: initial;&quot;&gt;master as base&lt;/b&gt;&lt;/font&gt;&lt;/div&gt;" style="text;html=1;align=center;verticalAlign=middle;resizable=0;points=[];autosize=1;strokeColor=none;fillColor=none;" vertex="1" parent="1">
          <mxGeometry x="110" y="200" width="100" height="60" as="geometry" />
        </mxCell>
        <mxCell id="np1AO1xEaLbohagVk7P--65" style="edgeStyle=orthogonalEdgeStyle;rounded=0;orthogonalLoop=1;jettySize=auto;html=1;entryX=-0.009;entryY=0.387;entryDx=0;entryDy=0;entryPerimeter=0;dashed=1;" edge="1" parent="1" source="np1AO1xEaLbohagVk7P--52" target="np1AO1xEaLbohagVk7P--55">
          <mxGeometry relative="1" as="geometry" />
        </mxCell>
        <mxCell id="np1AO1xEaLbohagVk7P--66" style="edgeStyle=orthogonalEdgeStyle;rounded=0;orthogonalLoop=1;jettySize=auto;html=1;entryX=-0.009;entryY=0.117;entryDx=0;entryDy=0;entryPerimeter=0;dashed=1;" edge="1" parent="1" source="np1AO1xEaLbohagVk7P--52" target="np1AO1xEaLbohagVk7P--56">
          <mxGeometry relative="1" as="geometry" />
        </mxCell>
        <mxCell id="np1AO1xEaLbohagVk7P--68" value="" style="image;aspect=fixed;html=1;points=[];align=center;fontSize=12;image=img/lib/azure2/internet_of_things/Digital_Twins.svg;shadow=1;textShadow=1;" vertex="1" parent="1">
          <mxGeometry x="672.3499999999999" y="311" width="48.29" height="49" as="geometry" />
        </mxCell>
        <mxCell id="np1AO1xEaLbohagVk7P--70" value="&lt;span dir=&quot;ltr&quot; class=&quot;ui-provider a b c d e f g h i j k l m n o p q r s t u v w x y z ab ac ae af ag ah ai aj ak&quot;&gt;&lt;b&gt;project1-release&lt;/b&gt;&lt;/span&gt;" style="text;html=1;align=center;verticalAlign=middle;resizable=0;points=[];autosize=1;strokeColor=#6c8ebf;fillColor=#dae8fc;" vertex="1" parent="1">
          <mxGeometry x="636.51" y="369.5" width="120" height="30" as="geometry" />
        </mxCell>
        <mxCell id="np1AO1xEaLbohagVk7P--71" value="" style="image;aspect=fixed;html=1;points=[];align=center;fontSize=12;image=img/lib/azure2/internet_of_things/Digital_Twins.svg;shadow=1;textShadow=1;" vertex="1" parent="1">
          <mxGeometry x="672.35" y="415.5" width="48.29" height="49" as="geometry" />
        </mxCell>
        <mxCell id="np1AO1xEaLbohagVk7P--72" value="&lt;b&gt;Source branch&lt;/b&gt;" style="text;html=1;align=center;verticalAlign=middle;resizable=0;points=[];autosize=1;strokeColor=none;fillColor=none;" vertex="1" parent="1">
          <mxGeometry x="155" y="415" width="110" height="30" as="geometry" />
        </mxCell>
        <mxCell id="np1AO1xEaLbohagVk7P--73" value="&lt;span dir=&quot;ltr&quot; class=&quot;ui-provider a b c d e f g h i j k l m n o p q r s t u v w x y z ab ac ae af ag ah ai aj ak&quot;&gt;&lt;b&gt;project2-release&lt;/b&gt;&lt;/span&gt;" style="text;html=1;align=center;verticalAlign=middle;resizable=0;points=[];autosize=1;strokeColor=#6c8ebf;fillColor=#dae8fc;" vertex="1" parent="1">
          <mxGeometry x="636.51" y="475.5" width="120" height="30" as="geometry" />
        </mxCell>
        <mxCell id="np1AO1xEaLbohagVk7P--75" value="&lt;b&gt;Release Branches ( UAT )&lt;/b&gt;" style="text;html=1;align=center;verticalAlign=middle;resizable=0;points=[];autosize=1;strokeColor=none;fillColor=none;rotation=0;" vertex="1" parent="1">
          <mxGeometry x="611.5" y="260" width="170" height="30" as="geometry" />
        </mxCell>
        <mxCell id="np1AO1xEaLbohagVk7P--82" value="&lt;font style=&quot;font-size: 10px;&quot;&gt;&lt;b&gt;&lt;font style=&quot;&quot;&gt;&lt;font style=&quot;&quot; face=&quot;Verdana&quot;&gt;Checking out new&amp;nbsp;&lt;span style=&quot;background-color: initial;&quot;&gt;development&amp;nbsp;&lt;/span&gt;&lt;/font&gt;&lt;span style=&quot;background-color: initial; font-family: Verdana;&quot;&gt;branch&amp;nbsp;&lt;/span&gt;&lt;/font&gt;&lt;/b&gt;&lt;b style=&quot;font-family: Verdana; background-color: initial;&quot;&gt;for multiple project&lt;/b&gt;&lt;/font&gt;" style="text;html=1;align=center;verticalAlign=middle;resizable=0;points=[];autosize=1;strokeColor=none;fillColor=none;" vertex="1" parent="1">
          <mxGeometry x="160" y="550" width="350" height="30" as="geometry" />
        </mxCell>
        <mxCell id="np1AO1xEaLbohagVk7P--83" value="&lt;font style=&quot;font-size: 10px;&quot;&gt;&lt;font style=&quot;&quot; face=&quot;Verdana&quot;&gt;&lt;b style=&quot;&quot;&gt;&lt;font style=&quot;&quot;&gt;Creating new release&lt;/font&gt;&amp;nbsp;&lt;/b&gt;&lt;/font&gt;&lt;/font&gt;&lt;div&gt;&lt;font style=&quot;font-size: 10px;&quot;&gt;&lt;b style=&quot;font-family: Verdana; background-color: initial;&quot;&gt;branch for every UAT&amp;nbsp;&lt;/b&gt;&lt;/font&gt;&lt;div&gt;&lt;font style=&quot;font-size: 10px;&quot;&gt;&lt;b style=&quot;font-family: Verdana; background-color: initial;&quot;&gt;from respective dev branch&lt;/b&gt;&lt;/font&gt;&lt;/div&gt;&lt;/div&gt;" style="text;html=1;align=center;verticalAlign=middle;resizable=0;points=[];autosize=1;strokeColor=none;fillColor=none;" vertex="1" parent="1">
          <mxGeometry x="606.51" y="540" width="180" height="60" as="geometry" />
        </mxCell>
        <mxCell id="np1AO1xEaLbohagVk7P--86" style="edgeStyle=orthogonalEdgeStyle;rounded=0;orthogonalLoop=1;jettySize=auto;html=1;entryX=1;entryY=0.455;entryDx=0;entryDy=0;entryPerimeter=0;" edge="1" parent="1" source="np1AO1xEaLbohagVk7P--75" target="np1AO1xEaLbohagVk7P--3">
          <mxGeometry relative="1" as="geometry">
            <Array as="points">
              <mxPoint x="697" y="196" />
            </Array>
          </mxGeometry>
        </mxCell>
        <mxCell id="np1AO1xEaLbohagVk7P--88" value="&lt;font style=&quot;font-size: 10px;&quot;&gt;&lt;b style=&quot;&quot;&gt;Cherry pick to master&amp;nbsp;&lt;/b&gt;&lt;b style=&quot;background-color: initial;&quot;&gt;branch&amp;nbsp;&lt;/b&gt;&lt;/font&gt;&lt;div&gt;&lt;font style=&quot;font-size: 10px;&quot;&gt;&lt;b style=&quot;background-color: initial;&quot;&gt;for Pre-Production&amp;nbsp;&lt;/b&gt;&lt;b style=&quot;background-color: initial;&quot;&gt;and&amp;nbsp;&lt;/b&gt;&lt;/font&gt;&lt;/div&gt;&lt;div&gt;&lt;font style=&quot;font-size: 10px;&quot;&gt;&lt;b style=&quot;background-color: initial;&quot;&gt;Production deployments.&lt;/b&gt;&lt;/font&gt;&lt;/div&gt;" style="text;html=1;align=center;verticalAlign=middle;resizable=0;points=[];autosize=1;strokeColor=none;fillColor=none;" vertex="1" parent="1">
          <mxGeometry x="535" y="200" width="170" height="60" as="geometry" />
        </mxCell>
        <mxCell id="np1AO1xEaLbohagVk7P--90" value="&lt;font style=&quot;font-size: 12px;&quot;&gt;&lt;b&gt;Hotfix - Development will be top of develop branch and merged to release branch and changes will be cherry picked from release and merged to master branch&lt;/b&gt;&lt;/font&gt;" style="rounded=1;whiteSpace=wrap;html=1;dashed=1;fillColor=#dae8fc;gradientColor=#7ea6e0;strokeColor=#6c8ebf;" vertex="1" parent="1">
          <mxGeometry x="100" y="620" width="670" height="50" as="geometry" />
        </mxCell>
      </root>
    </mxGraphModel>
  </diagram>
</mxfile>
